<svg xmlns="http://www.w3.org/2000/svg" xmlns:xlink="http://www.w3.org/1999/xlink" version="1.1" width="1000" height="1000" viewBox="0 0 1000 1000" xml:space="preserve">
<desc>Created with Fabric.js 3.5.0</desc>
<defs>
</defs>
<rect x="0" y="0" width="100%" height="100%" fill="#ffffff"/>
<g transform="matrix(0.7647 0 0 1.1338 702.4247 502.2359)" id="371546">
<radialGradient id="SVGID_35" gradientUnits="userSpaceOnUse" gradientTransform="matrix(0 441 -388.493 0 389.246 441.5)" cx="0" cy="0" r="1" fx="0" fy="0">
<stop offset="0%" style="stop-color:rgb(138,48,231);stop-opacity: 0.1"/>
<stop offset="100%" style="stop-color:rgb(138,48,231);stop-opacity: 0"/>
</radialGradient>
<path style="stroke: none; stroke-width: 1; stroke-dasharray: none; stroke-linecap: butt; stroke-dashoffset: 0; stroke-linejoin: miter; stroke-miterlimit: 4; is-custom-font: none; font-file-url: none; fill: url(#SVGID_35); fill-rule: nonzero; opacity: 1;" vector-effect="non-scaling-stroke" transform=" translate(-389.2463, -441.5)" d="M 389.246 882.5 C 603.805 882.5 777.739 685.058 777.739 441.5 C 777.739 197.942 603.805 0.5 389.246 0.5 C 174.688 0.5 0.753571 197.942 0.753571 441.5 C 0.753571 685.058 174.688 882.5 389.246 882.5 Z" stroke-linecap="round"/>
</g>
<g transform="matrix(0.7722 0 0 1.1338 300.494 500.5058)" id="507516">
<radialGradient id="SVGID_36" gradientUnits="userSpaceOnUse" gradientTransform="matrix(0 441 -388.493 0 388.754 441.5)" cx="0" cy="0" r="1" fx="0" fy="0">
<stop offset="0%" style="stop-color:rgb(20,141,255);stop-opacity: 0.1"/>
<stop offset="100%" style="stop-color:rgb(20,141,255);stop-opacity: 0"/>
</radialGradient>
<path style="stroke: none; stroke-width: 1; stroke-dasharray: none; stroke-linecap: butt; stroke-dashoffset: 0; stroke-linejoin: miter; stroke-miterlimit: 4; is-custom-font: none; font-file-url: none; fill: url(#SVGID_36); fill-rule: nonzero; opacity: 1;" vector-effect="non-scaling-stroke" transform=" translate(-388.7534, -441.5)" d="M 388.754 882.5 C 603.312 882.5 777.246 685.058 777.246 441.5 C 777.246 197.942 603.312 0.5 388.754 0.5 C 174.195 0.5 0.260803 197.942 0.260803 441.5 C 0.260803 685.058 174.195 882.5 388.754 882.5 Z" stroke-linecap="round"/>
</g>
</svg>