<svg width="56" height="56" viewBox="0 0 56 56" fill="none" xmlns="http://www.w3.org/2000/svg" xmlns:xlink="http://www.w3.org/1999/xlink">
<path d="M42.668,23.334C42.668,24.438 43.563,25.334 44.668,25.334C45.773,25.334 46.668,24.438 46.668,23.334L42.668,23.334ZM39.335,12.667L39.335,10.667L39.335,12.667ZM18.001,12.667L18.001,10.667L18.001,12.667ZM12.668,18L10.668,18L12.668,18ZM12.668,39.334L10.668,39.334L12.668,39.334ZM23.335,46.667C24.439,46.667 25.335,45.772 25.335,44.667C25.335,43.562 24.439,42.667 23.335,42.667L23.335,46.667ZM46.668,23.334L46.668,18L42.668,18L42.668,23.334L46.668,23.334ZM46.668,18C46.668,16.055 45.895,14.19 44.52,12.815L41.692,15.643C42.317,16.268 42.668,17.116 42.668,18L46.668,18ZM44.52,12.815C43.145,11.44 41.28,10.667 39.335,10.667L39.335,14.667C40.219,14.667 41.067,15.018 41.692,15.643L44.52,12.815ZM39.335,10.667L18.001,10.667L18.001,14.667L39.335,14.667L39.335,10.667ZM18.001,10.667C16.056,10.667 14.191,11.44 12.816,12.815L15.644,15.643C16.269,15.018 17.117,14.667 18.001,14.667L18.001,10.667ZM12.816,12.815C11.441,14.19 10.668,16.055 10.668,18L14.668,18C14.668,17.116 15.019,16.268 15.644,15.643L12.816,12.815ZM10.668,18L10.668,39.334L14.668,39.334L14.668,18L10.668,18ZM10.668,39.334C10.668,41.279 11.441,43.144 12.816,44.519L15.644,41.691C15.019,41.066 14.668,40.218 14.668,39.334L10.668,39.334ZM12.816,44.519C14.191,45.894 16.056,46.667 18.001,46.667L18.001,42.667C17.117,42.667 16.269,42.316 15.644,41.691L12.816,44.519ZM18.001,46.667L23.335,46.667L23.335,42.667L18.001,42.667L18.001,46.667Z" fill="#000000"/>
<path d="M28.669,28.667L29.301,26.769C28.582,26.53 27.79,26.717 27.254,27.252C26.719,27.788 26.532,28.58 26.771,29.299L28.669,28.667ZM52.669,36.667L53.563,38.456C54.287,38.094 54.721,37.332 54.664,36.525C54.606,35.718 54.069,35.025 53.301,34.769L52.669,36.667ZM42.002,42L41.108,40.211C40.721,40.405 40.407,40.719 40.213,41.106L42.002,42ZM36.669,52.667L34.771,53.299C35.027,54.067 35.72,54.604 36.527,54.662C37.334,54.719 38.096,54.285 38.458,53.561L36.669,52.667ZM4.002,2C4.002,0.895 3.107,0 2.002,0C0.897,0 0.002,0.895 0.002,2L4.002,2ZM0.002,2.027C0.002,3.131 0.897,4.027 2.002,4.027C3.107,4.027 4.002,3.131 4.002,2.027L0.002,2.027ZM14.669,2C14.669,0.895 13.773,0 12.669,0C11.564,0 10.669,0.895 10.669,2L14.669,2ZM10.669,2.027C10.669,3.131 11.564,4.027 12.669,4.027C13.773,4.027 14.669,3.131 14.669,2.027L10.669,2.027ZM25.335,2C25.335,0.895 24.44,0 23.335,0C22.231,0 21.335,0.895 21.335,2L25.335,2ZM21.335,2.027C21.335,3.131 22.231,4.027 23.335,4.027C24.44,4.027 25.335,3.131 25.335,2.027L21.335,2.027ZM36.002,2C36.002,0.895 35.107,0 34.002,0C32.897,0 32.002,0.895 32.002,2L36.002,2ZM32.002,2.027C32.002,3.131 32.897,4.027 34.002,4.027C35.107,4.027 36.002,3.131 36.002,2.027L32.002,2.027ZM4.002,12.667C4.002,11.562 3.107,10.667 2.002,10.667C0.897,10.667 0.002,11.562 0.002,12.667L4.002,12.667ZM0.002,12.693C0.002,13.798 0.897,14.693 2.002,14.693C3.107,14.693 4.002,13.798 4.002,12.693L0.002,12.693ZM4.002,23.333C4.002,22.229 3.107,21.333 2.002,21.333C0.897,21.333 0.002,22.229 0.002,23.333L4.002,23.333ZM0.002,23.36C0.002,24.465 0.897,25.36 2.002,25.36C3.107,25.36 4.002,24.465 4.002,23.36L0.002,23.36ZM4.002,34C4.002,32.895 3.107,32 2.002,32C0.897,32 0.002,32.895 0.002,34L4.002,34ZM0.002,34.027C0.002,35.131 0.897,36.027 2.002,36.027C3.107,36.027 4.002,35.131 4.002,34.027L0.002,34.027ZM28.036,30.564L52.036,38.564L53.301,34.769L29.301,26.769L28.036,30.564ZM51.774,34.878L41.108,40.211L42.896,43.789L53.563,38.456L51.774,34.878ZM40.213,41.106L34.88,51.772L38.458,53.561L43.791,42.894L40.213,41.106ZM38.566,52.034L30.566,28.034L26.771,29.299L34.771,53.299L38.566,52.034ZM0.002,2L0.002,2.027L4.002,2.027L4.002,2L0.002,2ZM10.669,2L10.669,2.027L14.669,2.027L14.669,2L10.669,2ZM21.335,2L21.335,2.027L25.335,2.027L25.335,2L21.335,2ZM32.002,2L32.002,2.027L36.002,2.027L36.002,2L32.002,2ZM0.002,12.667L0.002,12.693L4.002,12.693L4.002,12.667L0.002,12.667ZM0.002,23.333L0.002,23.36L4.002,23.36L4.002,23.333L0.002,23.333ZM0.002,34L0.002,34.027L4.002,34.027L4.002,34L0.002,34Z" fill="#000000"/>
</svg>
