<svg width="89" height="89" viewBox="0 0 89 89" fill="none" xmlns="http://www.w3.org/2000/svg">
<mask id="mask0_504_645" style="mask-type:luminance" maskUnits="userSpaceOnUse" x="0" y="0" width="89" height="89">
<path d="M0.498047 0.120117H88.818V88.4401H0.498047V0.120117Z" fill="white"/>
</mask>
<g mask="url(#mask0_504_645)">
<path d="M28.098 55.3201H26.258C25.77 55.3201 25.302 55.1263 24.957 54.7812C24.6119 54.4361 24.418 53.9681 24.418 53.4801C24.418 52.9921 24.6119 52.5241 24.957 52.179C25.302 51.834 25.77 51.6401 26.258 51.6401H28.098C28.586 51.6401 29.0541 51.834 29.3991 52.179C29.7442 52.5241 29.938 52.9921 29.938 53.4801C29.938 53.9681 29.7442 54.4361 29.3991 54.7812C29.0541 55.1263 28.586 55.3201 28.098 55.3201ZM18.8208 55.3201H15.104C14.616 55.3201 14.148 55.1263 13.8029 54.7812C13.4578 54.4361 13.264 53.9681 13.264 53.4801C13.264 52.9921 13.4578 52.5241 13.8029 52.179C14.148 51.834 14.616 51.6401 15.104 51.6401H18.8208C19.3088 51.6401 19.7768 51.834 20.1218 52.179C20.4669 52.5241 20.6608 52.9921 20.6608 53.4801C20.6608 53.9681 20.4669 54.4361 20.1218 54.7812C19.7768 55.1263 19.3088 55.3201 18.8208 55.3201ZM7.68877 55.0404C7.5183 55.0405 7.34864 55.0169 7.18461 54.9705C5.68651 54.544 4.32142 53.7437 3.21757 52.6448C3.04141 52.4755 2.90073 52.2729 2.80371 52.0487C2.7067 51.8245 2.6553 51.5832 2.65251 51.3389C2.64973 51.0947 2.69561 50.8523 2.78749 50.6259C2.87937 50.3996 3.0154 50.1938 3.18764 50.0206C3.35989 49.8473 3.56491 49.7101 3.79074 49.617C4.01656 49.5238 4.25868 49.4766 4.50297 49.478C4.74725 49.4794 4.98881 49.5294 5.21355 49.6252C5.43829 49.7209 5.64172 49.8604 5.81197 50.0356C6.47437 50.698 7.29869 51.1764 8.18925 51.434C8.61328 51.5577 8.97869 51.8297 9.21875 52.2004C9.45881 52.5712 9.55749 53.0159 9.49678 53.4534C9.43606 53.8909 9.22001 54.292 8.88806 54.5833C8.55612 54.8747 8.13044 55.037 7.68877 55.0404ZM2.33805 46.3299C1.85005 46.3299 1.38204 46.136 1.03697 45.791C0.691903 45.4459 0.498047 44.9779 0.498047 44.4899V40.7731C0.498047 40.2851 0.691903 39.8171 1.03697 39.472C1.38204 39.1269 1.85005 38.9331 2.33805 38.9331C2.82605 38.9331 3.29406 39.1269 3.63912 39.472C3.98419 39.8171 4.17805 40.2851 4.17805 40.7731V44.4899C4.17805 44.9779 3.98419 45.4459 3.63912 45.791C3.29406 46.136 2.82605 46.3299 2.33805 46.3299ZM2.33805 35.1684C1.85005 35.1684 1.38204 34.9746 1.03697 34.6295C0.691903 34.2844 0.498047 33.8164 0.498047 33.3284V29.6116C0.498047 29.1236 0.691903 28.6556 1.03697 28.3106C1.38204 27.9655 1.85005 27.7716 2.33805 27.7716C2.82605 27.7716 3.29406 27.9655 3.63912 28.3106C3.98419 28.6556 4.17805 29.1236 4.17805 29.6116V33.3284C4.17805 33.8164 3.98419 34.2844 3.63912 34.6295C3.29406 34.9746 2.82605 35.1684 2.33805 35.1684ZM2.33805 24.0107C1.85005 24.0107 1.38204 23.8168 1.03697 23.4718C0.691903 23.1267 0.498047 22.6587 0.498047 22.1707V18.4539C0.498047 17.9659 0.691903 17.4979 1.03697 17.1528C1.38204 16.8077 1.85005 16.6139 2.33805 16.6139C2.82605 16.6139 3.29406 16.8077 3.63912 17.1528C3.98419 17.4979 4.17805 17.9659 4.17805 18.4539V22.1707C4.17805 22.6587 3.98419 23.1267 3.63912 23.4718C3.29406 23.8168 2.82605 24.0107 2.33805 24.0107ZM53.858 20.2203C53.37 20.2203 52.902 20.0264 52.557 19.6814C52.2119 19.3363 52.018 18.8683 52.018 18.3803V14.6524C52.018 14.1644 52.2119 13.6964 52.557 13.3514C52.902 13.0063 53.37 12.8124 53.858 12.8124C54.346 12.8124 54.8141 13.0063 55.1591 13.3514C55.5042 13.6964 55.698 14.1644 55.698 14.6524V18.3729C55.698 18.8609 55.5042 19.3289 55.1591 19.674C54.8141 20.0191 54.346 20.2129 53.858 20.2129V20.2203ZM2.33805 12.8492C1.85005 12.8492 1.38204 12.6554 1.03697 12.3103C0.691903 11.9652 0.498047 11.4972 0.498047 11.0092V9.32012C0.498047 8.47372 0.615807 7.631 0.843967 6.81772C0.905052 6.58011 1.01304 6.35711 1.16157 6.16185C1.31011 5.96659 1.49619 5.803 1.70888 5.68072C1.92157 5.55843 2.15656 5.47991 2.40004 5.44978C2.64352 5.41965 2.89056 5.43851 3.12664 5.50526C3.36272 5.57202 3.58307 5.6853 3.77473 5.83847C3.96638 5.99163 4.12547 6.18157 4.24263 6.39712C4.3598 6.61267 4.43267 6.84948 4.45697 7.09361C4.48127 7.33774 4.4565 7.58426 4.38413 7.81868C4.24719 8.3074 4.17785 8.81257 4.17805 9.32012V11.0129C4.17805 11.2545 4.13045 11.4938 4.03799 11.7171C3.94552 11.9403 3.80998 12.1431 3.63912 12.314C3.46826 12.4849 3.26542 12.6204 3.04218 12.7129C2.81895 12.8053 2.57968 12.8492 2.33805 12.8492ZM53.5636 9.0846C53.1655 9.0846 52.7781 8.95547 52.4597 8.7166C52.1412 8.47772 51.9087 8.14199 51.7972 7.7598C51.5313 6.86452 51.0441 6.05071 50.3804 5.39356C50.057 5.04583 49.8805 4.58651 49.888 4.11167C49.8954 3.63683 50.0861 3.18324 50.4202 2.84578C50.7544 2.50832 51.206 2.31311 51.6808 2.30099C52.1555 2.28887 52.6166 2.46078 52.9675 2.78076C54.0752 3.87372 54.8921 5.239 55.3264 6.72572C55.407 7.00017 55.4226 7.28966 55.3718 7.57118C55.3211 7.85271 55.2053 8.11851 55.0339 8.3475C54.8624 8.57648 54.6399 8.76232 54.3841 8.89028C54.1282 9.01823 53.8497 9.08477 53.5636 9.0846ZM7.62621 4.09452C7.18329 4.09452 6.75524 3.93475 6.42064 3.64455C6.08603 3.35435 5.86734 2.9532 5.8047 2.51473C5.74206 2.07627 5.83969 1.62992 6.07965 1.25764C6.31961 0.885363 6.68581 0.612134 7.11101 0.488117C7.94637 0.245237 8.81485 0.120117 9.69437 0.120117H11.3172C11.8052 0.120117 12.2733 0.313973 12.6183 0.65904C12.9634 1.00411 13.1572 1.47212 13.1572 1.96012C13.1572 2.44812 12.9634 2.91613 12.6183 3.26119C12.2733 3.60626 11.8052 3.80012 11.3172 3.80012H9.69805C9.16445 3.80012 8.64557 3.87372 8.14509 4.02092C7.97782 4.07023 7.8006 4.09503 7.62621 4.09452ZM44.7979 3.80012H41.0811C40.5931 3.80012 40.1251 3.60626 39.78 3.26119C39.4349 2.91613 39.2411 2.44812 39.2411 1.96012C39.2411 1.47212 39.4349 1.00411 39.78 0.65904C40.1251 0.313973 40.5931 0.120117 41.0811 0.120117H44.7979C45.2859 0.120117 45.7539 0.313973 46.099 0.65904C46.444 1.00411 46.6379 1.47212 46.6379 1.96012C46.6379 2.44812 46.444 2.91613 46.099 3.26119C45.7539 3.60626 45.2859 3.80012 44.7979 3.80012ZM33.6364 3.80012H29.9196C29.4317 3.80012 28.9636 3.60626 28.6186 3.26119C28.2735 2.91613 28.0796 2.44812 28.0796 1.96012C28.0796 1.47212 28.2735 1.00411 28.6186 0.65904C28.9636 0.313973 29.4317 0.120117 29.9196 0.120117H33.6401C34.1281 0.120117 34.5961 0.313973 34.9412 0.65904C35.2863 1.00411 35.4801 1.47212 35.4801 1.96012C35.4801 2.44812 35.2863 2.91613 34.9412 3.26119C34.5961 3.60626 34.1281 3.80012 33.6401 3.80012H33.6364ZM22.4787 3.80012H18.7619C18.2739 3.80012 17.8059 3.60626 17.4608 3.26119C17.1157 2.91613 16.9219 2.44812 16.9219 1.96012C16.9219 1.47212 17.1157 1.00411 17.4608 0.65904C17.8059 0.313973 18.2739 0.120117 18.7619 0.120117H22.4787C22.9667 0.120117 23.4347 0.313973 23.7798 0.65904C24.1248 1.00411 24.3187 1.47212 24.3187 1.96012C24.3187 2.44812 24.1248 2.91613 23.7798 3.26119C23.4347 3.60626 22.9667 3.80012 22.4787 3.80012ZM55.1644 26.4174L55.7017 26.9584V25.8801C55.7109 25.4824 55.5888 25.0927 55.3543 24.7713C55.1198 24.4499 54.786 24.2146 54.4044 24.102C54.0228 23.9893 53.6148 24.0055 53.2433 24.1479C52.8718 24.2904 52.5576 24.5513 52.3492 24.8902C53.3797 25.1184 54.3622 25.6188 55.1644 26.4174ZM79.618 33.2401H61.7811C64.9385 36.8833 66.738 41.4355 66.738 46.3041C66.7322 51.6215 64.6173 56.7194 60.8573 60.4794C57.0974 64.2394 51.9994 66.3543 46.682 66.3601H39.138C37.1448 66.3538 35.2085 65.6946 33.6254 64.4833L33.618 64.5201V79.2401C33.618 84.3112 37.747 88.4401 42.818 88.4401H79.618C84.6891 88.4401 88.818 84.3112 88.818 79.2401V42.4401C88.818 37.3691 84.6891 33.2401 79.618 33.2401Z" fill="#A7A7A7"/>
<path d="M33.6145 54.2418V57.16C33.6145 60.2034 36.0911 62.68 39.1345 62.68H46.6785C51.0202 62.6751 55.1826 60.9482 58.2527 57.8782C61.3227 54.8082 63.0496 50.6457 63.0545 46.304C63.0602 44.1531 62.6393 42.0224 61.8163 40.0352C60.9932 38.048 59.7843 36.2437 58.2594 34.7267L52.5554 29.0227C52.1689 28.6353 51.6443 28.4172 51.0971 28.4165C50.5498 28.4158 50.0247 28.6326 49.6372 29.0191C49.2497 29.4055 49.0316 29.9301 49.031 30.4774C49.0303 31.0247 49.247 31.5498 49.6335 31.9373C49.8095 32.1068 49.9499 32.3096 50.0466 32.534C50.1434 32.7583 50.1945 32.9997 50.1969 33.244C50.1994 33.4883 50.1532 33.7306 50.061 33.9569C49.9688 34.1831 49.8325 34.3888 49.6599 34.5618C49.4874 34.7348 49.2822 34.8717 49.0562 34.9645C48.8302 35.0573 48.588 35.1042 48.3437 35.1025C48.0994 35.1007 47.8579 35.0503 47.6333 34.9542C47.4086 34.8581 47.2054 34.7182 47.0354 34.5427L45.1954 32.7027C44.8024 32.3273 44.2798 32.1178 43.7363 32.1178C43.1928 32.1178 42.6702 32.3273 42.2772 32.7027C42.0852 32.8942 41.933 33.1216 41.8291 33.372C41.7252 33.6223 41.6717 33.8908 41.6717 34.1619C41.6717 34.4329 41.7252 34.7014 41.8291 34.9517C41.933 35.2021 42.0852 35.4295 42.2772 35.621L44.1172 37.461C44.2889 37.6313 44.4251 37.834 44.5181 38.0573C44.6111 38.2805 44.659 38.52 44.659 38.7619C44.659 39.0037 44.6111 39.2432 44.5181 39.4664C44.4251 39.6897 44.2889 39.8924 44.1172 40.0627C43.7721 40.4077 43.3042 40.6015 42.8163 40.6015C42.3284 40.6015 41.8605 40.4077 41.5154 40.0627L38.7554 37.3027C38.3624 36.9273 37.8398 36.7178 37.2963 36.7178C36.7528 36.7178 36.2302 36.9273 35.8372 37.3027C35.6452 37.4942 35.493 37.7216 35.3891 37.972C35.2852 38.2223 35.2317 38.4908 35.2317 38.7619C35.2317 39.0329 35.2852 39.3014 35.3891 39.5517C35.493 39.8021 35.6452 40.0295 35.8372 40.221L40.4372 44.821C40.6089 44.9913 40.7451 45.194 40.8381 45.4173C40.9311 45.6405 40.979 45.88 40.979 46.1219C40.979 46.3637 40.9311 46.6032 40.8381 46.8264C40.7451 47.0497 40.6089 47.2524 40.4372 47.4227C40.0921 47.7677 39.6242 47.9615 39.1363 47.9615C38.6484 47.9615 38.1805 47.7677 37.8354 47.4227L33.8058 43.3931C33.4128 43.0177 32.8902 42.8082 32.3467 42.8082C31.8032 42.8082 31.2806 43.0177 30.8876 43.3931C30.6949 43.5838 30.5419 43.8107 30.4375 44.0608C30.3331 44.311 30.2793 44.5794 30.2793 44.8504C30.2793 45.1215 30.3331 45.3898 30.4375 45.64C30.5419 45.8901 30.6949 46.1171 30.8876 46.3077L40.4372 55.8573C40.7815 56.2034 40.9747 56.6718 40.9747 57.16C40.9747 57.6482 40.7815 58.1166 40.4372 58.4627C40.0921 58.8077 39.6242 59.0015 39.1363 59.0015C38.6484 59.0015 38.1805 58.8077 37.8354 58.4627L33.6145 54.2418Z" fill="#A7A7A7"/>
</g>
</svg>
