<svg width="36" height="36" viewBox="0 0 36 36" fill="none" xmlns="http://www.w3.org/2000/svg">
<rect x="0.5" y="0.5" width="35" height="35" rx="17.5" stroke="white"/>
<path d="M7 19.2221C11.4 9.44419 24.6 9.44419 29 19.2221" stroke="white" stroke-width="1.4" stroke-linecap="round" stroke-linejoin="round"/>
<path d="M18.0016 24.1113C17.5201 24.1113 17.0433 24.0164 16.5985 23.8322C16.1536 23.6479 15.7494 23.3778 15.4089 23.0373C15.0684 22.6968 14.7983 22.2926 14.6141 21.8477C14.4298 21.4029 14.335 20.9261 14.335 20.4446C14.335 19.963 14.4298 19.4862 14.6141 19.0414C14.7983 18.5965 15.0684 18.1923 15.4089 17.8518C15.7494 17.5113 16.1536 17.2412 16.5985 17.0569C17.0433 16.8727 17.5201 16.7778 18.0016 16.7778C18.9741 16.7778 19.9067 17.1641 20.5944 17.8518C21.282 18.5394 21.6683 19.4721 21.6683 20.4446C21.6683 21.417 21.282 22.3497 20.5944 23.0373C19.9067 23.725 18.9741 24.1113 18.0016 24.1113Z" stroke="white" stroke-width="1.4" stroke-linecap="round" stroke-linejoin="round"/>
</svg>
