<svg width="124" height="124" viewBox="0 0 124 124" fill="none" xmlns="http://www.w3.org/2000/svg" xmlns:xlink="http://www.w3.org/1999/xlink">
<path d="M50.452,4.557L108.134,12.661C111.623,13.152 114.774,15.008 116.894,17.822C119.015,20.636 119.931,24.176 119.441,27.665L111.336,85.312C111.094,87.04 110.513,88.703 109.627,90.206C108.742,91.71 107.569,93.024 106.175,94.074C104.782,95.124 103.195,95.89 101.506,96.327C99.817,96.763 98.058,96.863 96.33,96.62L92.989,96.151L92.989,48.756C92.989,44.058 91.122,39.552 87.8,36.23C84.478,32.908 79.973,31.042 75.274,31.042L33.314,31.042L35.446,15.863C35.689,14.135 36.269,12.472 37.155,10.969C38.04,9.465 39.213,8.151 40.607,7.101C42,6.051 43.587,5.285 45.276,4.848C46.966,4.412 48.724,4.314 50.452,4.557ZM28.841,31.04L31.06,15.247C31.714,10.595 34.189,6.393 37.942,3.566C41.694,0.739 46.416,-0.482 51.068,0.173L108.75,8.277C113.402,8.931 117.604,11.406 120.432,15.158C123.259,18.909 124.481,23.631 123.827,28.283L115.723,85.932C115.399,88.236 114.625,90.454 113.444,92.458C112.263,94.463 110.699,96.215 108.841,97.615C106.982,99.016 104.867,100.036 102.614,100.618C100.361,101.2 98.016,101.333 95.712,101.009L92.989,100.626L92.989,106.281C92.989,110.979 91.122,115.485 87.8,118.807C84.478,122.129 79.973,123.996 75.274,123.996L17.716,123.996C13.018,123.996 8.512,122.129 5.19,118.807C1.868,115.485 0.002,110.979 0.002,106.281L0.002,48.754C0.002,44.056 1.868,39.55 5.19,36.228C8.512,32.906 13.018,31.04 17.716,31.04L28.841,31.04ZM17.716,35.471L75.274,35.471C78.798,35.471 82.177,36.87 84.669,39.362C87.16,41.853 88.56,45.233 88.56,48.756L88.56,106.281C88.56,109.805 87.16,113.184 84.669,115.676C82.177,118.167 78.798,119.567 75.274,119.567L17.716,119.567C14.193,119.567 10.813,118.167 8.322,115.676C5.83,113.184 4.431,109.805 4.431,106.281L4.431,48.754C4.431,45.23 5.83,41.851 8.322,39.36C10.813,36.868 14.193,35.471 17.716,35.471Z" clip-rule="evenodd" fill-rule="evenodd" fill="#11011E"/>
</svg>
