<svg width="96" height="70" viewBox="0 0 96 70" fill="none" xmlns="http://www.w3.org/2000/svg">
<path d="M77.7438 24.9223C76.4299 11.2326 65.0321 0.491699 51.0001 0.491699C40.1424 0.491699 30.845 6.93598 26.5605 16.1827C25.2703 15.7716 23.9262 15.4927 22.5011 15.4927C15.0456 15.4927 9.00038 21.5409 9.00038 28.9934C9.00038 30.4755 9.2974 31.8767 9.73841 33.2058C3.9392 36.5872 0 42.7945 0 49.9889C0 60.7597 8.73054 69.4902 19.5013 69.4902V69.4963H73.5016V69.4902C85.9344 69.4902 96 59.4185 96 46.9888C96 36.02 88.1394 26.9085 77.7438 24.9223ZM59.3407 42.1944H54.0002V54.2312C54.0002 55.8902 52.6621 57.2373 51.0001 57.2373H44.9999C43.3439 57.2373 41.9997 55.8902 41.9997 54.2312V42.1944H36.6563C33.3981 42.1944 32.069 40.0193 33.6951 37.3672L45.0388 26.1856C47.262 23.9654 48.6689 23.8906 50.9612 26.1856L62.3049 37.3672C63.937 40.0223 62.5989 42.1944 59.3407 42.1944Z" fill="#1B89FF"/>
</svg>
