<svg width="40" height="40" viewBox="0 0 40 40" fill="none" xmlns="http://www.w3.org/2000/svg" xmlns:xlink="http://www.w3.org/1999/xlink">
<path d="M4.504,15C4.168,16.307 3.999,17.651 4,19C4,20.38 4.176,21.72 4.504,23L10.2,23C9.93,20.34 9.93,17.66 10.2,15L4.504,15ZM6.14,11L10.832,11C11.364,8.566 12.132,6.386 13.074,4.572C10.17,5.971 7.754,8.21 6.14,11L6.14,11ZM35.496,15L29.8,15C30.07,17.66 30.07,20.34 29.8,23L35.496,23C36.169,20.376 36.169,17.624 35.496,15L35.496,15ZM33.86,11C32.246,8.21 29.83,5.971 26.926,4.572C27.87,6.386 28.636,8.566 29.168,11L33.86,11ZM14.224,15C14.074,16.328 13.999,17.664 14,19C14,20.37 14.076,21.71 14.224,23L25.776,23C26.077,20.342 26.077,17.658 25.776,15L14.224,15ZM14.94,11L25.06,11C24.696,9.497 24.171,8.037 23.494,6.646C22.238,4.136 20.894,3 20,3C19.104,3 17.762,4.136 16.506,6.646C15.876,7.91 15.346,9.38 14.94,11ZM6.14,27C7.754,29.79 10.17,32.029 13.074,33.428C12.13,31.614 11.364,29.434 10.832,27L6.14,27L6.14,27ZM33.86,27L29.168,27C28.636,29.434 27.868,31.614 26.926,33.428C29.83,32.029 32.246,29.79 33.86,27ZM14.94,27C15.346,28.62 15.876,30.09 16.506,31.354C17.762,33.864 19.106,35 20,35C20.896,35 22.238,33.864 23.494,31.354C24.124,30.09 24.654,28.62 25.06,27L14.94,27L14.94,27ZM20,39C8.954,39 0,30.046 0,19C0,7.954 8.954,-1 20,-1C31.046,-1 40,7.954 40,19C40,30.046 31.046,39 20,39Z" fill="#11011E"/>
</svg>
